<?xml version="1.0" encoding="UTF-8" standalone="no"?>
<!-- Created with Inkscape (http://www.inkscape.org/) -->

<svg
   width="52mm"
   height="72mm"
   viewBox="0 0 43.333332 59.999999"
   version="1.1"
   id="svg1"
   xml:space="preserve"
   sodipodi:docname="vor_benutzung_bitte_anschnallen.svg"
   inkscape:version="1.4.2 (ebf0e940d0, 2025-05-08)"
   inkscape:export-filename="vor_benutzung_bitte_anschnallen.png"
   inkscape:export-xdpi="976.9231"
   inkscape:export-ydpi="976.9231"
   xmlns:inkscape="http://www.inkscape.org/namespaces/inkscape"
   xmlns:sodipodi="http://sodipodi.sourceforge.net/DTD/sodipodi-0.dtd"
   xmlns:xlink="http://www.w3.org/1999/xlink"
   xmlns="http://www.w3.org/2000/svg"
   xmlns:svg="http://www.w3.org/2000/svg"
   xmlns:rdf="http://www.w3.org/1999/02/22-rdf-syntax-ns#"
   xmlns:cc="http://creativecommons.org/ns#"
   xmlns:dc="http://purl.org/dc/elements/1.1/"><title
     id="title1">Bitte Anschnallen</title><sodipodi:namedview
     id="namedview1"
     pagecolor="#ffffff"
     bordercolor="#666666"
     borderopacity="1.0"
     inkscape:showpageshadow="2"
     inkscape:pageopacity="0.0"
     inkscape:pagecheckerboard="0"
     inkscape:deskcolor="#d1d1d1"
     inkscape:document-units="mm"
     inkscape:zoom="4.5538862"
     inkscape:cx="98.267717"
     inkscape:cy="120.44658"
     inkscape:window-width="1656"
     inkscape:window-height="1366"
     inkscape:window-x="0"
     inkscape:window-y="0"
     inkscape:window-maximized="1"
     inkscape:current-layer="svg1" /><defs
     id="defs1"><color-profile
       name="sRGB"
       xlink:href="file:///run/current-system/sw/share/color/icc/colord/sRGB.icc"
       id="color-profile2" /><inkscape:path-effect
       effect="fillet_chamfer"
       id="path-effect71"
       is_visible="true"
       lpeversion="1"
       nodesatellites_param="F,0,0,1,0,0,0,1 @ F,0,0,1,0,0,0,1 @ F,0,0,1,0,0,0,1 @ F,0,0,1,0,0,0,1 @ F,0,0,1,0,0,0,1 @ F,0,0,1,0,0,0,1 @ F,0,0,1,0,0,0,1 @ F,0,0,1,0,0,0,1"
       radius="0"
       unit="px"
       method="auto"
       mode="F"
       chamfer_steps="1"
       flexible="false"
       use_knot_distance="true"
       apply_no_radius="true"
       apply_with_radius="true"
       only_selected="false"
       hide_knots="false" /><inkscape:path-effect
       effect="fillet_chamfer"
       id="path-effect70"
       is_visible="true"
       lpeversion="1"
       nodesatellites_param="F,0,0,1,0,0,0,1 @ F,0,0,1,0,0,0,1 @ F,0,0,1,0,0,0,1 @ F,0,0,1,0,0,0,1 @ F,0,0,1,0,0,0,1 @ F,0,0,1,0,0,0,1 @ F,0,0,1,0,0,0,1 @ F,0,0,1,0,0,0,1"
       radius="0"
       unit="px"
       method="auto"
       mode="F"
       chamfer_steps="1"
       flexible="false"
       use_knot_distance="true"
       apply_no_radius="true"
       apply_with_radius="true"
       only_selected="false"
       hide_knots="false" /><inkscape:path-effect
       effect="fillet_chamfer"
       id="path-effect69"
       is_visible="true"
       lpeversion="1"
       nodesatellites_param="F,0,0,1,0,0,0,1 @ F,0,0,1,0,0,0,1 @ F,0,0,1,0,0,0,1 @ F,0,0,1,0,0,0,1 @ F,0,0,1,0,0,0,1 @ F,0,0,1,0,0,0,1 @ F,0,0,1,0,0,0,1 @ F,0,0,1,0,0,0,1"
       radius="0"
       unit="px"
       method="auto"
       mode="F"
       chamfer_steps="1"
       flexible="false"
       use_knot_distance="true"
       apply_no_radius="true"
       apply_with_radius="true"
       only_selected="false"
       hide_knots="false" /></defs><rect
     style="fill:#ffffff;stroke-width:0.22083333;stroke:none;stroke-dasharray:none"
     id="rect1"
     width="43.333332"
     height="60"
     x="0"
     y="0" /><g
     id="g68"
     inkscape:label="rand"
     transform="matrix(0.69444443,0,0,0.70000002,0.83333333,0.83333333)"
     style="stroke:none"><rect
       style="fill:#ffffff;fill-opacity:1;stroke-width:0.242324;stroke:none"
       id="rect68"
       width="60"
       height="83.333328"
       x="-2.220446e-16"
       y="-2.220446e-16" /><path
       style="fill:#1a1a1a;fill-opacity:1;stroke:none;stroke-width:0.222664"
       id="rect67"
       width="58.333332"
       height="81.666664"
       x="0.83333331"
       y="0.83333331"
       inkscape:label="rect67"
       inkscape:path-effect="#path-effect71"
       sodipodi:type="rect"
       d="M 2.4941031,0.83333331 H 57.505896 c 0.920066,0 1.660769,0.74070339 1.660769,1.66076979 V 80.839228 c 0,0.920066 -0.740703,1.660769 -1.660769,1.660769 H 2.4941031 c -0.9200664,0 -1.66076979,-0.740703 -1.66076979,-1.660769 V 2.4941031 c 0,-0.9200664 0.74070339,-1.66076979 1.66076979,-1.66076979 z"
       ry="1.6607698" /><path
       style="fill:#ffffff;fill-opacity:1;stroke:none;stroke-width:0.230739"
       id="rect69"
       width="56.666664"
       height="80"
       x="1.6666666"
       y="1.6666666"
       inkscape:path-effect="#path-effect70"
       sodipodi:type="rect"
       d="M 2.5979676,1.6666666 H 57.40203 c 0.515941,0 0.931301,0.4153602 0.931301,0.931301 V 80.735366 c 0,0.51594 -0.41536,0.931301 -0.931301,0.931301 H 2.5979676 c -0.5159408,0 -0.931301,-0.415361 -0.931301,-0.931301 V 2.5979676 c 0,-0.5159408 0.4153602,-0.931301 0.931301,-0.931301 z"
       ry="0.93130094" /></g><g
     id="g2"
     inkscape:label="icon + text"
     transform="matrix(0.59374998,0,0,0.59850001,8.6205991,3.8475116)"><path
       style="fill:#005c99;fill-opacity:1;stroke:none;stroke-width:0.272422;stroke-opacity:1"
       id="rect2"
       width="59.259258"
       height="23.148148"
       x="-7.6573067"
       y="63.799061"
       inkscape:path-effect="#path-effect69"
       sodipodi:type="rect"
       d="m -4.958524,63.799061 h 53.861693 c 1.495126,0 2.698783,1.203657 2.698783,2.698783 v 17.750582 c 0,1.495125 -1.203657,2.698782 -2.698783,2.698782 H -4.958524 c -1.4951256,0 -2.6987827,-1.203657 -2.6987827,-2.698782 V 66.497844 c 0,-1.495126 1.2036571,-2.698783 2.6987827,-2.698783 z"
       ry="2.6987827" /><text
       xml:space="preserve"
       style="font-style:normal;font-variant:normal;font-weight:normal;font-stretch:normal;font-size:7.56445px;line-height:1;font-family:sans-serif;-inkscape-font-specification:'sans-serif, Normal';font-variant-ligatures:normal;font-variant-caps:normal;font-variant-numeric:normal;font-variant-east-asian:normal;white-space:pre;shape-inside:url(#rect10);display:inline;fill:#ffffff;fill-opacity:1;stroke:none;stroke-width:0.264583"
       x="52.652233"
       y="8.1263866"
       id="text9"
       transform="matrix(0.99999568,0,0,1,22.006421,74.0021)"><tspan
         x="-23.461145"
         y="0"
         id="tspan7"><tspan
           style="font-family:'Neue DIN VAR Trial';-inkscape-font-specification:'Neue DIN VAR Trial, Normal ';text-align:center;text-anchor:middle"
           id="tspan4">Vor Benutzung
</tspan></tspan><tspan
         x="-27.797464"
         y="7.5773177"
         id="tspan9"><tspan
           style="font-family:'Neue DIN VAR Trial';-inkscape-font-specification:'Neue DIN VAR Trial, Normal ';text-align:center;text-anchor:middle"
           id="tspan8">bitte anschnallen</tspan></tspan></text></g><path
     id="path49"
     style="fill:#005c99;fill-opacity:1;stroke-width:0.90416666;stroke:none;stroke-dasharray:none"
     d="m 20.545709,4.1666666 -0.572956,0.061922 -0.572957,0.062312 -0.614603,0.100087 L 18.1702,4.4914651 17.564554,4.6390652 16.958513,4.787054 16.460291,4.9393271 15.962067,5.0919892 15.264561,5.3665466 14.567052,5.6411054 13.792077,6.0328848 13.017105,6.4242771 12.38693,6.8191735 11.756767,7.214071 11.19393,7.6373965 10.631095,8.060724 10.182698,8.4497765 9.7342966,8.8392229 9.2111626,9.3665316 8.688031,9.8942276 8.2516984,10.41686 7.8153657,10.939108 7.4210697,11.487438 7.0267738,12.035793 6.6970917,12.584122 6.3674085,13.132459 6.0482359,13.759466 5.7286737,14.386474 5.4947432,14.95584 5.2612011,15.525207 5.0673617,16.09847 4.8731338,16.671734 4.697199,17.367661 l -0.1759359,0.69594 -0.117159,0.69984 -0.11716,0.69984 -0.060333,0.6636 -0.059945,0.663615 0.026071,1.280497 0.026471,1.280494 0.1284475,0.847426 0.1284486,0.847437 0.1747662,0.710341 0.1743787,0.710352 0.2024022,0.622715 0.2024021,0.622339 0.2448296,0.596238 0.2448284,0.595847 0.2825865,0.563526 0.2821948,0.563529 0.3744446,0.62311 0.3744447,0.623115 0.3359107,0.473566 0.3355211,0.473563 0.2588418,0.322853 0.2588418,0.323229 0.5219643,0.580276 0.5215764,0.580666 0.588523,0.531982 0.5881329,0.532365 0.493167,0.383603 0.49355,0.383996 0.572176,0.378148 0.572564,0.378152 0.348749,0.201725 0.348761,0.201739 0.5531,0.276894 0.553102,0.276904 0.592814,0.248843 0.592801,0.248465 0.622771,0.204074 0.622783,0.204066 0.697515,0.17214 0.697508,0.172134 0.597867,0.09659 0.597866,0.09659 0.572948,0.05527 0.572962,0.05482 0.298928,0.01829 0.29893,0.01826 0.921716,-0.02219 0.92171,-0.02179 0.62277,-0.07282 0.622782,-0.07241 0.448399,-0.07632 0.448393,-0.07588 0.697522,-0.170969 0.69751,-0.17096 0.679603,-0.225103 0.679994,-0.225485 0.590473,-0.252361 0.590852,-0.25275 0.704912,-0.366466 0.705295,-0.366858 0.490437,-0.311947 0.490824,-0.311943 0.456181,-0.327913 0.456583,-0.327913 0.535192,-0.445134 0.535199,-0.445531 0.606034,-0.605976 0.606043,-0.606365 0.444902,-0.535096 0.445284,-0.535477 0.363152,-0.506678 0.363555,-0.507051 0.389619,-0.648038 0.390012,-0.648033 0.282587,-0.563525 0.282203,-0.563525 0.244826,-0.595853 0.244831,-0.59624 0.202399,-0.622331 0.202399,-0.622722 0.174772,-0.710344 0.17476,-0.710349 0.128068,-0.847431 0.128439,-0.847433 0.02644,-1.280494 0.02644,-1.280491 -0.06113,-0.663623 -0.06073,-0.663613 -0.116357,-0.6998 -0.116388,-0.69947 L 38.655626,17.442422 38.49916,16.821273 38.301048,16.211403 38.102933,15.601147 37.853044,14.990111 37.602765,14.378683 37.211976,13.622772 36.821169,12.866457 36.46348,12.302931 36.106179,11.739395 35.693204,11.189911 35.280227,10.640025 34.889821,10.191381 34.499807,9.7427336 34.049458,9.2921466 33.599109,8.8415593 33.150718,8.4513351 32.702319,8.0607237 32.139477,7.6373965 31.57665,7.2140707 30.946467,6.8191736 30.316302,6.4242772 29.541332,6.0328854 28.766365,5.6411036 28.068863,5.366545 27.371338,5.0919871 26.947852,4.9587964 26.524372,4.8259967 25.84749,4.6593137 25.170994,4.4926322 24.55211,4.3917656 23.933611,4.2908995 23.360664,4.2285892 22.787703,4.1666673 h -1.120997 z m 2.560011,12.2791854 3.711741,0.01324 3.712138,0.01321 0.177878,0.172911 0.178277,0.17253 0.05028,0.187316 0.05054,0.187711 -0.014,3.602754 -0.014,3.602756 -0.115993,0.162788 -0.115992,0.162784 -0.158026,0.08649 -0.158032,0.08649 -3.56228,0.0081 -3.562294,0.0081 -0.160749,-0.03894 -0.160753,-0.03891 -0.12495,-0.08218 -0.125328,-0.08172 -0.0876,-0.134364 -0.08796,-0.133969 V 20.68711 16.971036 l 0.112871,-0.18148 0.112872,-0.181488 0.170486,-0.08101 z m -10.656114,0.101252 h 1.815006 1.814613 l 0.510678,0.546783 0.510284,0.54639 1.680334,0.01436 1.679944,0.01401 0.10548,0.09581 0.105875,0.09541 0.03661,0.141373 0.03661,0.141363 -0.01324,2.635373 -0.01363,2.635761 -0.121056,0.130853 -0.121435,0.130858 h -1.66593 -1.66593 l -0.321506,0.336472 -0.321119,0.336494 -0.213696,0.236766 -0.213692,0.236789 H 14.261922 12.44964 V 24.248742 23.67548 H 9.8903846 7.3315499 l -0.034639,-0.286628 -0.035028,-0.286633 -0.04515,-0.722812 -0.04515,-0.722808 0.049823,-0.822511 0.049822,-0.8225 0.1218304,-0.722812 0.1218326,-0.722813 0.1163809,-0.448638 0.1163809,-0.448641 2.3509863,-0.01278 2.350982,-0.01278 v -0.547953 z m 0.647684,0.648042 v 3.489416 3.489424 h 0.423493 0.423488 v -3.489424 -3.489416 h -0.423488 z m 18.434207,0.297913 2.005346,0.01323 2.005337,0.01278 0.180989,0.72281 0.180997,0.722809 0.08215,0.568587 0.08215,0.568203 0.04905,0.75279 0.04904,0.752411 -0.02881,0.548338 -0.02886,0.548331 -0.04944,0.47357 -0.04981,0.473561 -0.02527,0.08727 -0.02527,0.08725 h -2.213999 -2.213589 v -3.165786 z m -6.80073,1.172632 -0.01319,2.006413 -0.01277,2.006412 h 2.043872 2.043888 l -0.01321,-2.006412 -0.01277,-2.006413 h -2.017863 z m -4.957306,0.222362 -1.083621,0.01361 -1.083643,0.01324 -0.01324,1.757167 -0.01277,1.757182 h 1.09647 1.096868 v -1.770408 z m 5.48044,0.301038 h 1.469747 1.469757 l 0.0061,1.320999 0.0061,1.321001 0.0061,0.149546 0.0061,0.149547 h -1.481984 -1.482212 v -1.470543 z m -10.72811,7.053629 0.07049,0.05767 0.07047,0.05765 3.025925,1.742768 3.025923,1.743153 -1.08286,0.624671 -1.08285,0.624666 -1.990555,1.151589 -1.990551,1.151197 h -0.03194 -0.03157 l -0.131165,-0.236782 -0.131171,-0.236784 -0.12494,-0.205627 -0.125339,-0.205622 0.385347,-0.222376 0.385336,-0.222374 1.370112,-0.788622 1.370111,-0.788237 0.07276,-0.06704 0.07314,-0.06735 h -3.772437 -3.772071 v -0.523412 -0.523421 l 3.774029,-0.0019 3.774023,-0.002 -0.07475,-0.0495 -0.07475,-0.04947 -1.693951,-0.973614 -1.693955,-0.973613 -0.05951,-0.03353 -0.0591,-0.03382 0.24561,-0.422157 0.246001,-0.422547 0.01704,-0.05056 z m 14.281836,0 0.01677,0.05099 0.01702,0.05056 0.245997,0.422536 0.245995,0.422554 -0.07205,0.04009 -0.07157,0.04013 -1.681505,0.966988 -1.681492,0.966996 -0.07475,0.04945 -0.07477,0.04951 3.774027,0.002 3.774029,0.0019 v 0.52341 0.523415 h -3.772466 -3.772084 l 0.0728,0.06735 0.07316,0.06735 1.755062,1.010612 1.755456,1.010989 -0.124944,0.205246 -0.124942,0.20562 -0.13118,0.236787 -0.131172,0.236782 h -0.03032 -0.03035 l -1.992109,-1.151076 -1.991723,-1.151199 -1.08286,-0.624667 -1.082852,-0.62467 3.025919,-1.743156 3.025927,-1.742761 0.07046,-0.05766 z"
     inkscape:label="sicherheitsgurt 7010" /><metadata
     id="metadata1"><rdf:RDF><cc:Work
         rdf:about=""><dc:title>Bitte Anschnallen</dc:title><dc:date>2025-12-13</dc:date><dc:creator><cc:Agent><dc:title>aevykk</dc:title></cc:Agent></dc:creator><dc:rights><cc:Agent><dc:title>CC0 Public Domain</dc:title></cc:Agent></dc:rights><cc:license
           rdf:resource="http://creativecommons.org/publicdomain/zero/1.0/" /></cc:Work><cc:License
         rdf:about="http://creativecommons.org/publicdomain/zero/1.0/"><cc:permits
           rdf:resource="http://creativecommons.org/ns#Reproduction" /><cc:permits
           rdf:resource="http://creativecommons.org/ns#Distribution" /><cc:permits
           rdf:resource="http://creativecommons.org/ns#DerivativeWorks" /></cc:License></rdf:RDF></metadata></svg>
